<svg width="2422" height="494" viewBox="0 0 2422 494" fill="none" xmlns="http://www.w3.org/2000/svg">
<path d="M411.631 246.64C411.631 282.86 399.831 316.38 379.891 343.57L438.581 402.26C473.221 359.78 494.021 305.6 494.021 246.65C494.021 187.7 473.221 133.51 438.581 91.04L379.891 149.73C399.831 176.92 411.631 210.43 411.631 246.66V246.64Z" fill="#FBBF15"/>
<path d="M150.452 379.15C177.642 399.09 211.152 410.89 247.382 410.89C283.607 410.89 317.112 399.093 344.3 379.158L402.981 437.84C360.512 472.48 306.322 493.28 247.372 493.28C188.422 493.28 134.242 472.48 91.7617 437.84L150.452 379.15ZM114.872 149.71C94.9322 176.9 83.1319 210.42 83.1318 246.64L83.1406 248.316C83.5028 283.896 95.2438 316.785 114.872 343.55L56.1826 402.24C21.5426 359.77 0.742188 305.58 0.742188 246.63C0.742216 187.68 21.5427 133.5 56.1826 91.0205L114.872 149.71ZM344.3 379.158L344.292 379.15H344.312C344.308 379.153 344.304 379.155 344.3 379.158ZM150.472 114.13H150.451C150.455 114.127 150.459 114.124 150.463 114.121L150.472 114.13ZM247.392 0C306.341 7.89737e-05 360.521 20.8005 403.001 55.4404L344.312 114.13C317.122 94.1899 283.611 82.3896 247.381 82.3896C211.156 82.3897 177.651 94.1864 150.463 114.121L91.7812 55.4404C134.251 20.8004 188.442 0 247.392 0Z" fill="#08B9F7"/>
<path d="M247.379 362.8C311.532 362.8 363.539 310.793 363.539 246.64C363.539 182.487 311.532 130.48 247.379 130.48C183.225 130.48 131.219 182.487 131.219 246.64C131.219 310.793 183.225 362.8 247.379 362.8Z" fill="#FBBF15"/>
<path d="M1060 145.75C1081.98 145.75 1101.13 150 1117.45 158.49C1133.76 166.98 1147.17 178.39 1157.66 192.71C1168.15 207.03 1175.72 223.35 1180.39 241.67C1185.05 259.99 1186.71 279.14 1185.39 299.12H999.062C1000.07 321.755 1005.89 338.304 1016.54 348.8C1027.19 359.29 1042.52 364.54 1062.5 364.54C1076.82 364.54 1089.14 360.97 1099.47 353.8C1109.79 346.64 1116.12 339.06 1118.45 331.07H1180.89C1170.9 361.71 1155.58 383.86 1134.93 397.51C1114.28 411.16 1089.3 417.99 1060 417.99C1039.68 417.99 1021.36 414.66 1005.05 408C988.731 401.34 974.911 392.02 963.591 380.03C952.261 368.04 943.521 353.73 937.361 337.07C931.191 320.42 928.121 302.1 928.121 282.12C928.121 262.14 931.281 244.83 937.611 228.17C943.931 211.52 952.921 197.12 964.591 184.96C976.241 172.81 990.141 163.23 1006.3 156.24C1022.45 149.25 1040.35 145.75 1060 145.75ZM1817.82 145.72C1830.81 145.72 1843.96 146.64 1857.29 148.47C1870.61 150.3 1882.77 153.89 1893.76 159.21C1904.75 164.54 1913.74 172.03 1920.73 181.69C1927.72 191.35 1931.22 203.84 1931.22 219.16V353.54C1931.22 365.2 1931.88 376.36 1933.22 387.01C1934.55 397.67 1936.88 405.66 1940.21 410.99H1868.27C1866.94 406.99 1865.85 402.92 1865.02 398.75C1864.18 394.59 1863.6 390.34 1863.27 386.01C1851.94 397.67 1838.62 405.91 1823.31 410.74C1807.99 415.56 1792.34 417.98 1776.35 417.98C1764.03 417.98 1752.54 416.4 1741.88 413.23C1731.22 410.07 1721.9 405.32 1713.91 398.99C1705.92 392.67 1699.67 384.67 1695.18 375.01C1690.68 365.36 1688.44 353.86 1688.44 340.54C1688.44 325.89 1690.94 313.82 1695.93 304.32C1700.93 294.83 1707.58 287.26 1715.91 281.59C1724.23 275.93 1733.65 271.69 1744.13 268.85C1754.62 266.02 1765.36 263.78 1776.35 262.11C1787.34 260.45 1797.83 259.11 1807.82 258.11C1817.81 257.11 1826.72 255.61 1834.55 253.61C1842.37 251.61 1848.61 248.7 1853.28 244.87C1857.94 241.05 1860.27 235.46 1860.27 228.13C1860.27 220.8 1859.02 214.39 1856.52 209.9C1854.02 205.4 1850.69 201.91 1846.53 199.41C1842.36 196.91 1837.54 195.25 1832.04 194.41C1826.54 193.58 1820.63 193.16 1814.3 193.16C1800.64 193.16 1789.74 196.16 1781.58 202.15C1773.42 208.15 1768.67 218.14 1767.34 232.12H1696.42C1697.43 215.484 1701.59 201.674 1708.91 190.69C1716.23 179.7 1725.56 170.88 1736.89 164.21C1748.21 157.55 1760.87 152.81 1774.86 149.97C1788.85 147.14 1803.16 145.72 1817.82 145.72ZM2298.87 145.72C2311.86 145.72 2325.01 146.64 2338.34 148.47C2351.66 150.3 2363.82 153.89 2374.81 159.21C2385.8 164.54 2394.79 172.03 2401.78 181.69C2408.77 191.35 2412.27 203.84 2412.27 219.16V353.54C2412.27 365.2 2412.93 376.36 2414.27 387.01C2415.6 397.67 2417.93 405.66 2421.26 410.99H2349.32C2347.99 406.99 2346.9 402.92 2346.07 398.75C2345.23 394.59 2344.65 390.34 2344.32 386.01C2332.99 397.67 2319.67 405.91 2304.36 410.74C2289.04 415.56 2273.39 417.98 2257.4 417.98C2245.08 417.98 2233.59 416.4 2222.93 413.23C2212.27 410.07 2202.95 405.32 2194.96 398.99C2186.97 392.67 2180.72 384.67 2176.23 375.01C2171.73 365.36 2169.49 353.86 2169.49 340.54C2169.49 325.89 2171.99 313.82 2176.98 304.32C2181.97 294.82 2188.63 287.26 2196.96 281.59C2205.28 275.93 2214.7 271.69 2225.18 268.85C2235.67 266.02 2246.41 263.78 2257.4 262.11C2268.39 260.45 2278.88 259.11 2288.87 258.11C2298.86 257.11 2307.77 255.61 2315.6 253.61C2323.42 251.61 2329.66 248.7 2334.33 244.87C2338.99 241.05 2341.32 235.46 2341.32 228.13C2341.32 220.8 2340.07 214.39 2337.57 209.9C2335.07 205.4 2331.74 201.91 2327.58 199.41C2323.41 196.91 2318.59 195.25 2313.09 194.41C2307.59 193.58 2301.68 193.16 2295.35 193.16C2281.69 193.16 2270.79 196.16 2262.63 202.15C2254.47 208.15 2249.72 218.14 2248.39 232.12H2177.47C2178.48 215.484 2182.64 201.674 2189.96 190.69C2197.28 179.7 2206.61 170.88 2217.94 164.21C2229.26 157.55 2241.92 152.81 2255.91 149.97C2269.9 147.14 2284.21 145.72 2298.87 145.72ZM777.771 145.72C793.08 145.72 807.821 147.72 821.98 151.71C836.13 155.71 848.71 161.79 859.7 169.94C870.69 178.1 879.761 188.34 886.931 200.66C894.091 212.99 898.171 227.31 899.171 243.62H829.73L829.721 243.64C825.051 214 807.57 199.18 777.271 199.18C765.941 199.18 756.451 201.76 748.801 206.92C741.131 212.09 734.89 218.75 730.07 226.9C725.24 235.06 721.831 244.13 719.831 254.13C717.831 264.12 716.831 273.78 716.831 283.1C716.831 292.42 717.831 301.92 719.831 311.57C721.831 321.23 725.08 329.98 729.57 337.8C734.07 345.63 740.141 352.04 747.801 357.03C755.461 362.03 764.781 364.52 775.771 364.521C792.42 364.521 805.41 359.77 814.73 350.28C824.05 340.79 829.881 328.05 832.211 312.061H900.65C895.98 346.36 882.67 372.59 860.69 390.74C838.71 408.9 810.56 417.97 776.271 417.97C756.621 417.97 738.8 414.72 722.82 408.23C706.83 401.74 693.17 392.58 681.86 380.75C670.53 368.93 661.711 354.94 655.381 338.79C649.051 322.64 645.891 304.91 645.891 285.59C645.891 266.27 648.801 247.05 654.631 229.89C660.451 212.74 669.03 197.92 680.36 185.43C691.68 172.94 705.5 163.2 721.82 156.21C738.13 149.22 756.791 145.72 777.771 145.72ZM1613.52 152.73H1665.45V200.19H1613.5V328.07C1613.5 340.06 1615.5 348.05 1619.5 352.05C1623.5 356.05 1631.49 358.04 1643.48 358.04C1651.47 358.04 1658.79 357.38 1665.46 356.04V411.49C1659.47 412.49 1652.8 413.15 1645.48 413.49C1638.15 413.82 1630.99 413.99 1624 413.99C1613.01 413.99 1602.6 413.24 1592.78 411.74C1582.95 410.24 1574.3 407.24 1566.8 402.75C1559.31 398.25 1553.39 392.01 1549.07 384.021C1544.74 376.031 1542.58 365.54 1542.58 352.55V200.19H1499.62V152.73H1542.58V75.2998H1613.52V152.73ZM1375.22 145.74C1394.2 145.74 1409.77 148.32 1421.93 153.48C1434.08 158.65 1443.66 165.8 1450.66 174.96C1457.65 184.12 1462.56 195.28 1465.4 208.43C1468.23 221.59 1469.65 236.16 1469.65 252.14V411H1398.71V265.13C1398.71 243.82 1395.29 227.91 1388.47 217.42C1381.64 206.93 1369.9 201.68 1353.25 201.68C1333.93 201.68 1319.94 207.43 1311.29 218.91C1302.63 230.4 1298.3 249.3 1298.3 275.61V410.99H1227.36V152.73H1294.79V188.7H1296.29C1305.28 174.05 1316.94 163.22 1331.26 156.23C1345.58 149.24 1360.23 145.74 1375.22 145.74ZM2137.02 145.74C2142.34 145.74 2147.51 146.58 2152.51 148.24V214.18C2149.18 213.52 2145.18 212.93 2140.52 212.43C2135.85 211.93 2131.36 211.68 2127.03 211.68C2114.04 211.68 2103.05 213.85 2094.06 218.17C2085.07 222.5 2077.82 228.41 2072.33 235.9C2066.83 243.39 2062.92 252.22 2060.59 262.38C2058.26 272.54 2057.09 283.28 2057.09 294.6V410.99H1986.15V152.73H2053.59V200.69H2054.59C2057.91 192.7 2062.41 185.29 2068.08 178.46C2073.74 171.64 2080.23 165.81 2087.56 160.98C2094.88 156.16 2102.8 152.41 2111.29 149.74C2119.78 147.08 2128.35 145.74 2137.02 145.74ZM1860.26 284.618C1857.26 287.284 1853.53 289.361 1849.03 290.85C1844.53 292.35 1839.7 293.6 1834.54 294.6C1829.37 295.6 1823.88 296.43 1818.05 297.1C1812.22 297.77 1806.64 298.6 1801.31 299.6C1795.64 300.6 1790.32 301.93 1785.33 303.6C1780.33 305.27 1775.92 307.52 1772.09 310.34C1768.26 313.17 1765.17 316.83 1762.85 321.33C1760.52 325.83 1759.35 331.24 1759.35 337.57C1759.35 344.24 1760.51 349.651 1762.85 353.811C1765.18 357.98 1768.35 361.3 1772.34 363.8C1776.34 366.3 1781 368.05 1786.33 369.04C1791.65 370.04 1797.15 370.54 1802.82 370.54C1816.81 370.54 1827.63 368.21 1835.29 363.55C1842.95 358.89 1848.61 353.31 1852.27 346.811C1855.93 340.321 1858.18 333.74 1859.01 327.08C1859.84 320.42 1860.26 315.09 1860.26 311.09V284.618ZM2341.32 284.618C2338.32 287.284 2334.59 289.361 2330.09 290.85C2325.59 292.35 2320.76 293.6 2315.6 294.6C2310.43 295.6 2304.94 296.43 2299.11 297.1C2293.28 297.77 2287.7 298.6 2282.37 299.6C2276.7 300.6 2271.38 301.93 2266.39 303.6C2261.39 305.27 2256.98 307.52 2253.15 310.34C2249.32 313.17 2246.23 316.83 2243.91 321.33C2241.58 325.83 2240.41 331.24 2240.41 337.57C2240.41 344.24 2241.57 349.651 2243.91 353.811C2246.24 357.98 2249.41 361.3 2253.4 363.8C2257.4 366.3 2262.06 368.05 2267.39 369.04C2272.71 370.04 2278.21 370.54 2283.88 370.54C2297.87 370.54 2308.69 368.21 2316.35 363.55C2324.01 358.89 2329.67 353.31 2333.33 346.811C2336.99 340.321 2339.24 333.74 2340.07 327.08C2340.9 320.42 2341.32 315.09 2341.32 311.09V284.618ZM1058.01 199.18C1046.68 199.18 1037.28 201.1 1029.79 204.93C1022.3 208.76 1016.3 213.51 1011.81 219.17C1007.31 224.84 1004.14 230.83 1002.32 237.15C1000.49 243.48 999.401 249.14 999.071 254.13H1114.46C1111.13 236.15 1105.22 222.5 1096.73 213.17C1088.24 203.85 1075.33 199.18 1058.01 199.18ZM1696.42 232.15L1696.4 232.12H1696.42C1696.42 232.13 1696.42 232.14 1696.42 232.15ZM2177.47 232.15L2177.45 232.12H2177.47C2177.47 232.13 2177.47 232.14 2177.47 232.15ZM1227.36 152.73H1227.35L1227.36 152.72V152.73Z" fill="#08B9F7"/>
</svg>
